<svg width="512" height="512" viewBox="0 0 512 512" fill="none" xmlns="http://www.w3.org/2000/svg">
<path opacity="0.05" d="M393 80H183C174.716 80 168 86.7157 168 95V385C168 393.284 174.716 400 183 400H393C401.284 400 408 393.284 408 385V95C408 86.7157 401.284 80 393 80Z" fill="#282828"/>
<path d="M377 64H167C158.716 64 152 70.7157 152 79V369C152 377.284 158.716 384 167 384H377C385.284 384 392 377.284 392 369V79C392 70.7157 385.284 64 377 64Z" fill="#282828"/>
<path d="M377 64.5H167C158.992 64.5 152.5 70.9919 152.5 79V369C152.5 377.008 158.992 383.5 167 383.5H377C385.008 383.5 391.5 377.008 391.5 369V79C391.5 70.9919 385.008 64.5 377 64.5Z" stroke="white" stroke-opacity="0.15"/>
<path opacity="0.1" d="M176 368H368C372.418 368 376 364.418 376 360L376 88C376 83.5817 372.418 80 368 80H176C171.582 80 168 83.5817 168 88L168 360C168 364.418 171.582 368 176 368Z" fill="url(#paint0_linear_71_888)"/>
<path opacity="0.1" d="M344 128H136C127.163 128 120 135.163 120 144V432C120 440.837 127.163 448 136 448H344C352.837 448 360 440.837 360 432V144C360 135.163 352.837 128 344 128Z" fill="#282828"/>
<path d="M328 112H120C111.163 112 104 119.163 104 128V416C104 424.837 111.163 432 120 432H328C336.837 432 344 424.837 344 416V128C344 119.163 336.837 112 328 112Z" fill="#605690"/>
<path d="M328 112.5H120C111.44 112.5 104.5 119.44 104.5 128V416C104.5 424.56 111.44 431.5 120 431.5H328C336.56 431.5 343.5 424.56 343.5 416V128C343.5 119.44 336.56 112.5 328 112.5Z" stroke="white" stroke-opacity="0.25"/>
<path opacity="0.25" d="M320 128H128C123.582 128 120 131.582 120 136V408C120 412.418 123.582 416 128 416H320C324.418 416 328 412.418 328 408V136C328 131.582 324.418 128 320 128Z" fill="url(#paint1_linear_71_888)"/>
<g opacity="0.5">
<path d="M277.656 270.412L207.656 345.412C206.914 346.204 205.935 346.733 204.866 346.919C203.798 347.105 202.697 346.939 201.731 346.445C200.765 345.951 199.986 345.156 199.512 344.181C199.037 343.205 198.893 342.102 199.1 341.037L208.262 295.206L172.244 281.681C171.47 281.391 170.78 280.915 170.236 280.294C169.691 279.673 169.309 278.927 169.124 278.122C168.938 277.317 168.954 276.479 169.172 275.682C169.389 274.885 169.8 274.155 170.369 273.556L240.369 198.556C241.111 197.764 242.09 197.235 243.158 197.049C244.227 196.863 245.328 197.029 246.294 197.523C247.26 198.017 248.039 198.811 248.513 199.787C248.988 200.762 249.132 201.866 248.925 202.931L239.737 248.812L275.756 262.318C276.524 262.61 277.208 263.086 277.749 263.704C278.289 264.323 278.668 265.065 278.854 265.865C279.039 266.665 279.025 267.498 278.811 268.291C278.598 269.084 278.193 269.813 277.631 270.412H277.656Z" fill="white"/>
</g>
<defs>
<linearGradient id="paint0_linear_71_888" x1="376" y1="368" x2="168" y2="80" gradientUnits="userSpaceOnUse">
<stop stop-color="white"/>
<stop offset="0.5" stop-color="white" stop-opacity="0"/>
</linearGradient>
<linearGradient id="paint1_linear_71_888" x1="120" y1="128" x2="328" y2="416" gradientUnits="userSpaceOnUse">
<stop stop-color="white"/>
<stop offset="0.5" stop-color="white" stop-opacity="0"/>
</linearGradient>
</defs>
</svg>
